<?xml version="1.0" encoding="UTF-8" standalone="no"?>
<!-- Created with Inkscape (http://www.inkscape.org/) -->

<svg
   xmlns:dc="http://purl.org/dc/elements/1.1/"
   xmlns:cc="http://creativecommons.org/ns#"
   xmlns:rdf="http://www.w3.org/1999/02/22-rdf-syntax-ns#"
   xmlns:svg="http://www.w3.org/2000/svg"
   xmlns="http://www.w3.org/2000/svg"
   xmlns:sodipodi="http://sodipodi.sourceforge.net/DTD/sodipodi-0.dtd"
   xmlns:inkscape="http://www.inkscape.org/namespaces/inkscape"
   width="180"
   height="65"
   id="svg5427"
   version="1.1"
   inkscape:version="0.92.1 r15371"
   sodipodi:docname="logo-esup.svg">
  <defs
     id="defs5429" />
  <sodipodi:namedview
     id="base"
     pagecolor="#ffffff"
     bordercolor="#666666"
     borderopacity="1.0"
     inkscape:pageopacity="0.0"
     inkscape:pageshadow="2"
     inkscape:zoom="1.4"
     inkscape:cx="185.73929"
     inkscape:cy="76.99511"
     inkscape:document-units="px"
     inkscape:current-layer="layer1"
     showgrid="false"
     fit-margin-top="0"
     fit-margin-left="0"
     fit-margin-right="0"
     fit-margin-bottom="0"
     inkscape:window-width="1673"
     inkscape:window-height="840"
     inkscape:window-x="4"
     inkscape:window-y="44"
     inkscape:window-maximized="0" />
  <metadata
     id="metadata5432">
    <rdf:RDF>
      <cc:Work
         rdf:about="">
        <dc:format>image/svg+xml</dc:format>
        <dc:type
           rdf:resource="http://purl.org/dc/dcmitype/StillImage" />
        <dc:title></dc:title>
      </cc:Work>
    </rdf:RDF>
  </metadata>
  <g
     inkscape:label="Calque 1"
     inkscape:groupmode="layer"
     id="layer1"
     transform="translate(-170.16573,-614.23865)">
    <path
       d="m 259.54366,660.76487 c -0.97509,0 -1.74992,0.1449 -2.32531,0.42434 -0.576,0.27943 -1.00695,0.65201 -1.29417,1.11773 -0.28818,0.46573 -0.47539,0.9832 -0.56235,1.55242 -0.089,0.56922 -0.13247,1.14879 -0.13247,1.73871 0,0.47608 0.051,0.99355 0.14972,1.55242 0.10062,0.55887 0.30651,1.08669 0.62044,1.57312 0.31249,0.48643 0.74907,0.89005 1.31237,1.21089 0.56235,0.33118 1.30722,0.48642 2.23177,0.48642 0.9249,0 1.6693,-0.15524 2.2326,-0.48642 0.56282,-0.32084 0.99377,-0.72446 1.29369,-1.21089 0.30039,-0.48643 0.50018,-1.01425 0.60079,-1.57312 0.0987,-0.55887 0.1502,-1.07634 0.1502,-1.55242 0,-0.47607 -0.0515,-0.99354 -0.1502,-1.56277 -0.10061,-0.55887 -0.3004,-1.08669 -0.60079,-1.57311 -0.29992,-0.48643 -0.73087,-0.89006 -1.29369,-1.21089 -0.5633,-0.32083 -1.3077,-0.48643 -2.2326,-0.48643 z m -8.77735,4.86425 c 0,-1.36613 0.16194,-2.57701 0.48761,-3.65336 0.32471,-1.06599 0.84405,-1.97674 1.55707,-2.7219 0.71158,-0.74516 1.61828,-1.31438 2.71877,-1.71801 1.10037,-0.39328 2.43946,-0.60027 4.0139,-0.60027 1.65109,0.0518 3.12529,0.37258 4.427,0.97285 0.54964,0.25873 1.09474,0.60027 1.63193,1.00389 0.53755,0.41398 1.0133,0.93146 1.42604,1.54207 0.41167,0.62097 0.74908,1.34543 1.0115,2.19409 0.26339,0.8383 0.39514,1.82151 0.39514,2.94959 0,1.11775 -0.11978,2.10095 -0.35681,2.9496 -0.23764,0.8383 -0.54965,1.56277 -0.93712,2.16304 -0.38879,0.61062 -0.82525,1.10739 -1.31381,1.51102 -0.48748,0.40363 -0.99329,0.73481 -1.51911,0.99354 -1.20098,0.57957 -2.57612,0.87971 -4.1266,0.90041 -0.77626,-0.0414 -1.52534,-0.17594 -2.24997,-0.41398 -0.62655,-0.21734 -1.26423,-0.56922 -1.91413,-1.0453 -0.65038,-0.47607 -1.18745,-1.15914 -1.61276,-2.06989 l 0.8244,0.9418 v 7.71035 h -4.46305 v -13.60954"
       style="fill:#ed184e;fill-opacity:1;fill-rule:nonzero;stroke:none;stroke-width:0.43482748"
       id="path4055"
       inkscape:connector-curvature="0" />
    <path
       d="m 279.42581,660.76487 c -0.92466,0 -1.66966,0.1656 -2.2326,0.48643 -0.56294,0.32084 -0.99413,0.72446 -1.29477,1.21089 -0.29943,0.48642 -0.49826,1.01425 -0.59887,1.57312 -0.10062,0.56922 -0.15092,1.08669 -0.15092,1.56276 0,0.47608 0.0503,0.99355 0.15092,1.55242 0.10061,0.55887 0.29944,1.0867 0.59887,1.57312 0.30064,0.48643 0.73183,0.89005 1.29477,1.21089 0.56294,0.33118 1.30794,0.48642 2.2326,0.48642 0.92466,0 1.66847,-0.15524 2.23261,-0.48642 0.56294,-0.32084 0.99293,-0.72446 1.29356,-1.21089 0.30064,-0.48642 0.49947,-1.01425 0.60008,-1.57312 0.0994,-0.55887 0.15091,-1.07634 0.15091,-1.55242 0,-0.47607 -0.0515,-0.99354 -0.15091,-1.56276 -0.10061,-0.55887 -0.29944,-1.0867 -0.60008,-1.57312 -0.30063,-0.48643 -0.73062,-0.89005 -1.29356,-1.21089 -0.56414,-0.32083 -1.30795,-0.48643 -2.23261,-0.48643 z m -8.89089,4.8332 c 0,-1.12808 0.12457,-2.11129 0.37609,-2.94959 0.24914,-0.84866 0.58092,-1.57312 0.99414,-2.19409 0.41202,-0.61061 0.88633,-1.12809 1.42412,-1.54207 0.53779,-0.40362 1.08277,-0.74516 1.63133,-1.00389 1.30076,-0.60027 2.78956,-0.9211 4.46521,-0.97285 1.6505,0.0518 3.12493,0.37258 4.42689,0.97285 0.54976,0.25873 1.09474,0.60026 1.63133,1.00389 0.53779,0.41398 1.0133,0.93146 1.42652,1.54207 0.41082,0.62097 0.7486,1.34543 1.0121,2.19409 0.2623,0.8383 0.39406,1.82151 0.39406,2.94959 0,1.11775 -0.13176,2.10094 -0.39406,2.9496 -0.2635,0.8383 -0.60128,1.56277 -1.0121,2.16304 -0.41322,0.61061 -0.88873,1.10739 -1.42652,1.51102 -0.53659,0.40363 -1.08157,0.73481 -1.63133,0.99354 -1.30196,0.57957 -2.77639,0.87971 -4.42689,0.90041 -1.67565,-0.0207 -3.16445,-0.32084 -4.46521,-0.90041 -0.54856,-0.25873 -1.09354,-0.58991 -1.63133,-0.99354 -0.53779,-0.40363 -1.0121,-0.90041 -1.42412,-1.51102 -0.41322,-0.60027 -0.745,-1.32474 -0.99414,-2.16304 -0.25152,-0.84866 -0.37609,-1.83185 -0.37609,-2.9496"
       style="fill:#ed184e;fill-opacity:1;fill-rule:nonzero;stroke:none;stroke-width:0.43482748"
       id="path4057"
       inkscape:connector-curvature="0" />
    <path
       d="m 290.56727,662.16206 c 0,-1.1281 0.27549,-2.0078 0.82406,-2.64947 0.55096,-0.63131 1.15223,-1.11774 1.80141,-1.43857 0.77495,-0.39328 1.6505,-0.63132 2.62666,-0.71411 h 5.25213 v 3.92244 h -3.52617 c -0.50186,0 -0.90789,0.0725 -1.21931,0.22769 -0.31381,0.15524 -0.55695,0.31049 -0.73302,0.48642 -0.19883,0.21734 -0.33776,0.45538 -0.41322,0.71412 v 11.08426 h -4.61254 v -11.63278"
       style="fill:#ed184e;fill-opacity:1;fill-rule:nonzero;stroke:none;stroke-width:0.43482748"
       id="path4059"
       inkscape:connector-curvature="0" />
    <path
       d="m 307.86158,661.22025 v 7.22392 c 0.0743,0.25874 0.212,0.49678 0.41322,0.71412 0.17487,0.17594 0.41802,0.34153 0.73182,0.48642 0.31262,0.15524 0.71746,0.22769 1.21812,0.22769 h 2.85184 v 3.92244 h -4.5778 c -0.97497,-0.0828 -1.85053,-0.32083 -2.62547,-0.71411 -0.65157,-0.32083 -1.24446,-0.80725 -1.78225,-1.43857 -0.53899,-0.64167 -0.80488,-1.52137 -0.80488,-2.64946 v -16.04166 h 4.5754 v 4.40887 h 4.31429 v 3.86034 h -4.31429"
       style="fill:#ed184e;fill-opacity:1;fill-rule:nonzero;stroke:none;stroke-width:0.43482748"
       id="path4061"
       inkscape:connector-curvature="0" />
    <path
       d="m 324.06592,660.76487 c -0.92466,0 -1.66846,0.1656 -2.2314,0.48643 -0.56294,0.32084 -0.99413,0.72446 -1.29357,1.21089 -0.30063,0.48642 -0.50066,1.01425 -0.60127,1.57312 -0.0994,0.56922 -0.14972,1.08669 -0.14972,1.56276 0,0.47608 0.0503,0.99355 0.14972,1.55242 0.10061,0.55887 0.30064,1.0867 0.60127,1.57312 0.29944,0.48643 0.73063,0.89005 1.29357,1.21089 0.56294,0.33118 1.30674,0.48642 2.2314,0.48642 0.92586,0 1.66967,-0.15524 2.23261,-0.48642 0.56294,-0.32084 1.00012,-0.72446 1.31392,-1.21089 0.31142,-0.48642 0.51744,-1.01425 0.61805,-1.57312 0.0994,-0.55887 0.15091,-1.07634 0.15091,-1.55242 0,-0.58991 -0.0443,-1.16948 -0.13294,-1.73871 -0.0874,-0.56921 -0.27429,-1.08669 -0.56055,-1.55242 -0.28866,-0.46572 -0.71985,-0.8383 -1.29597,-1.11773 -0.57492,-0.27944 -1.34986,-0.42433 -2.32603,-0.42433 z m 8.7795,13.02997 h -4.46401 v -2.26653 l 0.82525,-0.9418 c -0.4264,0.91075 -0.96419,1.59382 -1.61456,2.06989 -0.64919,0.47608 -1.28758,0.82796 -1.91161,1.0453 -0.72704,0.23804 -1.47563,0.37258 -2.25177,0.41397 -1.55109,-0.0207 -2.9261,-0.32083 -4.12744,-0.9004 -0.52342,-0.25873 -1.03007,-0.58992 -1.51875,-0.99354 -0.48628,-0.40363 -0.92466,-0.90041 -1.31273,-1.51102 -0.38807,-0.60027 -0.70069,-1.32474 -0.93784,-2.16304 -0.23715,-0.84866 -0.35573,-1.83185 -0.35573,-2.9496 0,-1.12809 0.12456,-2.11129 0.3749,-2.9496 0.24912,-0.84865 0.5809,-1.57311 0.99413,-2.19408 0.41322,-0.61061 0.88753,-1.12809 1.42412,-1.54207 0.53779,-0.40363 1.08276,-0.74516 1.63253,-1.00389 1.29956,-0.60027 2.78956,-0.9211 4.46401,-0.97285 1.57624,0 2.91413,0.20698 4.01486,0.60027 1.10073,0.40363 2.00743,0.97284 2.72009,1.718 0.71265,0.74516 1.23128,1.65592 1.55707,2.72191 0.32339,1.07635 0.48748,2.28723 0.48748,3.65336 v 8.16572"
       style="fill:#ed184e;fill-opacity:1;fill-rule:nonzero;stroke:none;stroke-width:0.43482748"
       id="path4063"
       inkscape:connector-curvature="0" />
    <path
       d="m 339.85944,657.35991 v 16.43493 h -4.57659 v -16.43493 z m -4.57659,-3.66371 c 0,-0.47608 0.007,-0.82796 0.018,-1.066 0.0132,-0.23803 0.0874,-0.41398 0.22518,-0.51747 0.13774,-0.11384 0.36291,-0.16559 0.67672,-0.18629 0.31142,-0.0103 0.76776,-0.0103 1.36783,-0.0103 0.60127,0 1.05761,0 1.36903,0.0103 0.31261,0.0207 0.53779,0.0725 0.67673,0.18629 0.13534,0.10349 0.2108,0.27944 0.22517,0.51747 0.0107,0.23804 0.018,0.58992 0.018,1.066 0,0.47607 -0.007,0.8383 -0.018,1.07634 -0.0143,0.23804 -0.0898,0.40363 -0.22517,0.51747 -0.13894,0.1035 -0.36412,0.1656 -0.67673,0.17594 -0.31142,0.0104 -0.76776,0.0104 -1.36903,0.0104 -0.60007,0 -1.05641,0 -1.36783,-0.0104 -0.31381,-0.0103 -0.53898,-0.0724 -0.67672,-0.17594 -0.13775,-0.11384 -0.212,-0.27943 -0.22518,-0.51747 -0.0108,-0.23804 -0.018,-0.60027 -0.018,-1.07634"
       style="fill:#ed184e;fill-opacity:1;fill-rule:nonzero;stroke:none;stroke-width:0.43482748"
       id="path4065"
       inkscape:connector-curvature="0" />
    <path
       d="m 342.44898,673.79484 h 4.57577 v -21.8802 h -4.57577 z"
       style="fill:#ed184e;fill-opacity:1;fill-rule:nonzero;stroke:none;stroke-width:0.43482748"
       id="path4067"
       inkscape:connector-curvature="0" />
    <path
       d="m 192.11781,629.18868 v -2.9703 c -0.0702,-3.45671 -1.12289,-4.55376 -4.76896,-4.55376 -4.55947,0 -4.34747,3.0324 -4.34747,6.12688 v 1.39718 z m -18.23477,-0.91075 c -0.42017,-8.06223 4.34878,-12.66774 13.32591,-12.66774 12.69423,0 14.02577,5.69221 14.02577,15.02742 v 4.6055 h -18.23334 v 4.96774 c 0.0687,4.49167 2.03246,5.32997 4.76764,5.32997 3.36723,0 4.34879,-2.11128 4.20937,-6.41666 h 9.11643 c 0.35142,7.6379 -3.29657,12.48145 -12.62308,12.48145 -10.52055,0 -14.79879,-4.30538 -14.5887,-14.36505 v -8.96263"
       style="fill:#3871c1;fill-opacity:1;fill-rule:nonzero;stroke:none;stroke-width:0.43482748"
       id="path4069"
       inkscape:connector-curvature="0" />
    <path
       d="m 214.57237,639.3001 v 2.40108 c 0,1.95604 0.7359,3.6844 3.67973,3.6844 2.15594,0 3.10157,-1.68696 3.10157,-3.40497 0,-2.8668 -2.73375,-3.95349 -5.15224,-5.22648 -2.83855,-1.40752 -5.2556,-2.7219 -6.9909,-4.45026 -1.68153,-1.72836 -2.6814,-3.81895 -2.6814,-6.82029 0,-6.39597 4.46964,-9.6664 11.61768,-9.6664 8.04229,0 12.14182,4.62621 11.72165,11.03252 h -8.51479 c -0.10529,-1.99744 0,-4.71935 -3.04864,-4.90564 -1.89352,-0.13454 -2.99676,0.77621 -3.20685,2.27688 -0.26242,2.03884 0.94563,3.08414 2.7862,4.17083 3.46929,1.91465 6.46593,3.09449 8.62009,4.82285 2.15499,1.71801 3.41633,3.99489 3.41633,8.12432 0,6.54086 -4.20469,10.17352 -11.87867,10.17352 -8.4639,0 -12.03834,-4.08803 -12.03834,-8.5797 v -3.63266 h 8.56858"
       style="fill:#3871c1;fill-opacity:1;fill-rule:nonzero;stroke:none;stroke-width:0.43482748"
       id="path4071"
       inkscape:connector-curvature="0" />
    <path
       d="m 233.97255,616.63479 h 9.25034 v 25.70805 c 0,1.63522 0.57923,3.04274 3.20673,3.04274 2.4185,0 3.15391,-1.8215 3.15391,-3.27043 v -25.48036 h 9.2513 v 24.66276 c 0,5.76464 -2.99581,10.21491 -12.45803,10.21491 -7.83172,0 -12.40425,-3.21868 -12.40425,-10.21491 v -24.66276"
       style="fill:#3871c1;fill-opacity:1;fill-rule:nonzero;stroke:none;stroke-width:0.43482748"
       id="path4073"
       inkscape:connector-curvature="0" />
    <path
       d="m 273.34963,631.29997 c 1.73315,-0.0414 3.73099,0.13454 5.20182,-0.85901 0.94623,-0.91075 1.15703,-2.27688 1.15703,-3.45671 0,-1.31438 -0.1581,-3.31183 -1.73434,-3.94314 -0.89352,-0.27944 -2.15595,-0.27944 -3.62678,-0.27944 h -0.99773 z m -9.25273,19.39488 v -34.06006 h 10.98588 c 3.57408,0 8.7268,0.26908 11.30076,2.81505 2.15595,2.09059 2.57636,4.62621 2.57636,7.39986 0,3.68441 -0.99893,7.81384 -5.20303,9.49046 -3.20637,1.36612 -6.93856,0.9625 -10.40724,1.09704 v 13.25765 h -9.25273"
       style="fill:#3871c1;fill-opacity:1;fill-rule:nonzero;stroke:none;stroke-width:0.43482748"
       id="path4075"
       inkscape:connector-curvature="0" />
    <path
       d="m 202.42923,660.90977 c 10.31837,-3.79825 22.33335,-3.94314 29.85857,-1.07635 7.74512,2.81506 9.32987,7.11008 9.21284,6.95485 0.0641,-0.0414 -4.47143,-1.066 -10.52199,-0.24839 -6.08324,0.67271 -13.41059,3.32217 -22.03199,6.41666 -1.80034,0.64167 -5.15966,1.87325 -8.212,2.30793 -3.06085,0.56922 -6.16242,0.55887 -8.96216,0.30013 -5.6626,-0.53817 -10.12565,-2.35967 -13.30292,-4.20188 -6.38221,-3.7672 -8.2743,-7.88629 -8.30376,-7.83454 -0.0248,-0.031 4.59684,1.09704 11.06373,1.45927 3.21141,0.17595 6.83184,0.0725 10.26183,-0.56922 1.71423,-0.33118 3.41263,-0.68306 5.0478,-1.29368 1.72368,-0.52782 2.9509,-1.14879 5.89005,-2.21478"
       style="fill:#3871c1;fill-opacity:1;fill-rule:nonzero;stroke:none;stroke-width:0.43482748"
       id="path4077"
       inkscape:connector-curvature="0" />
  </g>
</svg>
